<?xml version="1.0" encoding="utf-8"?>
<!-- Generator: Adobe Illustrator 19.0.1, SVG Export Plug-In . SVG Version: 6.00 Build 0)  -->
<svg version="1.1" id="Money" xmlns="http://www.w3.org/2000/svg" xmlns:xlink="http://www.w3.org/1999/xlink" x="0px" y="0px"
	 viewBox="-282 383.7 46.6 27.3" style="enable-background:new -282 383.7 46.6 27.3;" xml:space="preserve">
<style type="text/css">
	.st0{fill:#63D1BB;}
</style>
<path class="st0" d="M-239.3,383.7h-38.8c-2.2,0-3.9,1.7-3.9,3.9v19.5c0,2.2,1.7,3.9,3.9,3.9h38.8c2.2,0,3.9-1.7,3.9-3.9v-19.5
	C-235.4,385.4-237.2,383.7-239.3,383.7z M-279,408.6v-22.2h40.2v22.2H-279z"/>
<path class="st0" d="M-275.1,404.7h32.4v-14.4h-32.4V404.7z M-258.7,392.2c2.9,0,5.3,2.4,5.3,5.3c0,2.9-2.4,5.3-5.3,5.3
	s-5.3-2.4-5.3-5.3C-264,394.6-261.6,392.2-258.7,392.2z"/>
</svg>
