<?xml version="1.0" encoding="utf-8"?>
<!-- Generator: Adobe Illustrator 19.0.1, SVG Export Plug-In . SVG Version: 6.00 Build 0)  -->
<svg version="1.1" id="Layer_1" xmlns="http://www.w3.org/2000/svg" xmlns:xlink="http://www.w3.org/1999/xlink" x="0px" y="0px"
	 viewBox="-289 381 32 32" style="enable-background:new -289 381 32 32;" xml:space="preserve">
<style type="text/css">
	.st0{fill:#62D1BA;}
</style>
<path id="mail" class="st0" d="M-261,386.5h-24c-2.2,0-4,1.8-4,4v13c0,2.2,1.8,4,4,4h24c2.2,0,4-1.8,4-4v-13
	C-257,388.3-258.8,386.5-261,386.5z M-287,391.8l7,5.3l-7,5.3V391.8z M-259,403.5c0,1.1-0.9,2-2,2h-24c-1.1,0-2-0.9-2-2l7.8-5.9
	l4.4,3.3c0.5,0.4,1.2,0.6,1.8,0.6c0.6,0,1.3-0.2,1.8-0.6l4.4-3.3L-259,403.5L-259,403.5z M-259,402.3l-7-5.3l7-5.3V402.3z
	 M-271.8,400.1c-0.4,0.3-0.8,0.4-1.2,0.4s-0.9-0.1-1.2-0.4l-4.1-3.1l-0.8-0.6l-7.8-5.9l0,0c0-1.1,0.9-2,2-2h24c1.1,0,2,0.9,2,2
	L-271.8,400.1z"/>
</svg>
