<?xml version="1.0" encoding="utf-8"?>
<!-- Generator: Adobe Illustrator 19.0.1, SVG Export Plug-In . SVG Version: 6.00 Build 0)  -->
<svg version="1.1" id="Layer_1" xmlns="http://www.w3.org/2000/svg" xmlns:xlink="http://www.w3.org/1999/xlink" x="0px" y="0px"
	 viewBox="-289 378.7 32 37.3" style="enable-background:new -289 378.7 32 37.3;" xml:space="preserve">
<style type="text/css">
	.st0{fill:#63D1BB;}
</style>
<path class="st0" d="M-273,416c8.8,0,16-7.2,16-16C-265.9,400-273,407.2-273,416z M-284.4,395.1c0,2.5,2,4.4,4.4,4.4
	c0.9,0,1.8-0.3,2.5-0.8l0,0.3c0,2.5,2,4.4,4.4,4.4c2.5,0,4.4-2,4.4-4.4l0-0.3c0.7,0.5,1.6,0.8,2.5,0.8c2.5,0,4.4-2,4.4-4.4
	c0-1.8-1-3.3-2.5-4c1.5-0.7,2.5-2.2,2.5-4c0-2.5-2-4.4-4.4-4.4c-0.9,0-1.8,0.3-2.5,0.8l0-0.3c0-2.5-2-4.4-4.4-4.4
	c-2.5,0-4.4,2-4.4,4.4l0,0.3c-0.7-0.5-1.6-0.8-2.5-0.8c-2.5,0-4.4,2-4.4,4.4c0,1.8,1,3.3,2.5,4
	C-283.3,391.8-284.4,393.4-284.4,395.1z M-273,386.7c2.5,0,4.4,2,4.4,4.4s-2,4.4-4.4,4.4c-2.5,0-4.4-2-4.4-4.4
	C-277.5,388.7-275.5,386.7-273,386.7z M-289,400c0,8.8,7.2,16,16,16C-273,407.2-280.2,400-289,400z"/>
</svg>
