<?xml version="1.0" encoding="utf-8"?>
<!-- Generator: Adobe Illustrator 19.0.1, SVG Export Plug-In . SVG Version: 6.00 Build 0)  -->
<svg version="1.1" id="Layer_1" xmlns="http://www.w3.org/2000/svg" xmlns:xlink="http://www.w3.org/1999/xlink" x="0px" y="0px"
	 viewBox="-289 380.5 32.7 32.5" style="enable-background:new -289 380.5 32.7 32.5;" xml:space="preserve">
<style type="text/css">
	.st0{fill:#63D1BB;}
</style>
<path class="st0" d="M-286.1,413h12.5v-13.9h-12.5V413z M-257.9,389.4h-7.3c0.5-0.3,1-0.5,1.4-0.8c1.6-1.1,2.4-2.6,2.4-4
	c0-1.2-0.6-2.2-1.4-2.9c-0.8-0.7-1.9-1.1-3-1.1c-1.2,0-2.4,0.4-3.3,1.1c-1.5,1-2.6,2.5-3.4,4.1c0,0.1-0.1,0.2-0.1,0.2
	c-0.3-0.6-0.6-1.2-1-1.8c-0.7-1-1.5-1.9-2.5-2.5c-1-0.6-2.1-1.1-3.3-1.1c-1.2,0-2.3,0.5-3.2,1.3c-0.8,0.8-1.4,1.9-1.4,3.1
	c0,0.7,0.2,1.5,0.6,2.2c0.6,0.9,1.4,1.6,2.6,2.2h-6.6c-0.9,0-1.6,0.7-1.6,1.6v5.9h15.4v-7.5h1.9v7.5h15.4V391
	C-256.3,390.1-257,389.4-257.9,389.4 M-280.3,387c-0.6-0.4-1-0.8-1.2-1.1c-0.2-0.4-0.3-0.7-0.3-1c0-0.5,0.2-1,0.7-1.5
	c0.4-0.4,1-0.7,1.6-0.7h0c0.7,0,1.4,0.2,2,0.7c1,0.7,2,1.9,2.6,3.2c0.3,0.7,0.6,1.4,0.8,2.1C-277.1,388.5-279.1,387.8-280.3,387
	 M-269.7,385.4c0.6-0.8,1.2-1.5,1.9-1.9c0.7-0.5,1.4-0.7,2-0.7h0c0.6,0,1.1,0.2,1.5,0.5c0.4,0.3,0.6,0.7,0.6,1.2
	c0,0.5-0.3,1.3-1.5,2.1c-1.1,0.8-3.1,1.7-6.1,2.3C-271,387.7-270.5,386.5-269.7,385.4 M-271.7,413h12.5v-13.9h-12.5V413z"/>
</svg>
