<?xml version="1.0" encoding="utf-8"?>
<!-- Generator: Adobe Illustrator 19.0.1, SVG Export Plug-In . SVG Version: 6.00 Build 0)  -->
<svg version="1.1" id="Layer_1" xmlns="http://www.w3.org/2000/svg" xmlns:xlink="http://www.w3.org/1999/xlink" x="0px" y="0px"
	 viewBox="-289 381 32 32" style="enable-background:new -289 381 32 32;" xml:space="preserve">
<style type="text/css">
	.st0{fill:#63D1BB;}
</style>
<g transform="translate(0 192)">
	<path class="st0" d="M-263,204l6-4v16l-6-4V204z M-265,204v8c0,2.2-1.8,4-4,4h-16c-2.2,0-4-1.8-4-4v-8c0-2.2,1.8-4,4-4h10
		c0-1.1,0.9-2,2-2v-2h-11c-0.6,0-1-0.4-1-1s0.4-1,1-1h12c0.6,0,1,0.4,1,1v3c1.1,0,2,0.9,2,2C-266.8,200-265,201.8-265,204z
		 M-277,204h-8v8h8V204z M-269,205c0-0.6-0.4-1-1-1h-4c-0.6,0-1,0.4-1,1s0.4,1,1,1h4C-269.4,206-269,205.6-269,205z"/>
</g>
</svg>
