<?xml version="1.0" encoding="utf-8"?>
<!-- Generator: Adobe Illustrator 19.0.1, SVG Export Plug-In . SVG Version: 6.00 Build 0)  -->
<svg version="1.1" id="svg4488" xmlns="http://www.w3.org/2000/svg" xmlns:xlink="http://www.w3.org/1999/xlink" x="0px" y="0px"
	 viewBox="-285 365.6 40.2 62.4" style="enable-background:new -285 365.6 40.2 62.4;" xml:space="preserve">
<style type="text/css">
	.st0{fill:#3BB09D;}
</style>
<g>
	<path class="st0" d="M-269.8,403.5c-0.3,1-0.2,2.2,0,3.6c0.5,2.6,1.7,6,2.4,9.7h5.1c0.7-3.6,1.9-7,2.5-9.7c0.3-1.4,0.3-2.7,0-3.6
		c-0.3-0.9-0.9-1.6-2-2.3h-6C-269,401.9-269.6,402.6-269.8,403.5z"/>
	<path class="st0" d="M-258,423.5h-13.8c-1.3,0-2.3,1-2.3,2.2v2.2h2.3h13.8h2.3v-2.2C-255.7,424.5-256.7,423.5-258,423.5z"/>
	<path class="st0" d="M-250.9,367.8h-11.7c0-1.2-1-2.2-2.3-2.2c-1.3,0-2.3,1-2.3,2.2h-11.7l-6.1,25.5c0.8-0.5,1.6-1,2.6-1
		c1.4,0,2.2,0.8,2.9,1.4c0.7,0.6,1.2,0.8,1.4,0.8c0.3,0,0.8-0.3,1.5-0.8c0.7-0.5,1.6-1.4,2.9-1.4c1.3,0,2.2,0.8,2.9,1.4
		c0.7,0.5,1.2,0.8,1.5,0.8c0.1,0,0.3-0.1,0.6-0.2c0.2-0.1,0.5-0.4,0.9-0.6c0.5-0.4,1.1-1,2-1.2c0.3-0.1,0.6-0.1,0.9-0.1
		c1.3,0,2.2,0.8,2.9,1.4c0.7,0.5,1.2,0.8,1.5,0.8c0.3,0,0.8-0.3,1.4-0.9c0.7-0.6,1.6-1.4,2.9-1.4c1.4,0,2.2,0.8,2.9,1.4
		c0.3,0.3,0.6,0.5,0.9,0.6c0.2,0.1,0.4,0.2,0.6,0.2c0.3,0,0.8-0.3,1.4-0.9c0.7-0.6,1.6-1.4,2.9-1.4c1,0,1.8,0.5,2.6,1L-250.9,367.8z
		"/>
	<path class="st0" d="M-261.5,419.1h-6.9c-0.7,0-1.1,0.5-1.1,1.1c0,0.6,0.5,1.1,1.1,1.1h6.9c0.7,0,1.1-0.5,1.1-1.1
		C-260.3,419.6-260.8,419.1-261.5,419.1L-261.5,419.1z"/>
	<path class="st0" d="M-264.9,394.6c-0.1,0-0.3,0.1-0.6,0.2c-0.2,0.1-0.4,0.3-0.6,0.4v3.7h2.3v-3.7
		C-264.2,394.8-264.7,394.6-264.9,394.6z"/>
</g>
</svg>
