<?xml version="1.0" encoding="utf-8"?>
<!-- Generator: Adobe Illustrator 19.0.1, SVG Export Plug-In . SVG Version: 6.00 Build 0)  -->
<svg version="1.1" id="Layer_1" xmlns="http://www.w3.org/2000/svg" xmlns:xlink="http://www.w3.org/1999/xlink" x="0px" y="0px"
	 viewBox="-288 379.6 34.4 34.4" style="enable-background:new -288 379.6 34.4 34.4;" xml:space="preserve">
<style type="text/css">
	.st0{fill:#63D1BB;}
</style>
<g>
	<path class="st0" d="M-287.7,393.7c-0.4,2.1-0.4,4.2,0,6.3l4.1-3.2L-287.7,393.7z"/>
	<path class="st0" d="M-263.6,381.2c-4.8-2.2-10.4-2.1-15.3,0.4l7.5,5.6L-263.6,381.2z"/>
	<path class="st0" d="M-254.1,392.8l-4.8,3.7l4.9,3.7C-253.5,397.8-253.5,395.3-254.1,392.8z"/>
	<path class="st0" d="M-278.8,412c4.8,2.5,10.7,2.6,15.7,0.1l-8.1-6.1L-278.8,412z"/>
	<path class="st0" d="M-280.1,394.1l-6.2-4.7c-0.3,0.7-0.6,1.4-0.8,2.1l5.3,4L-280.1,394.1z"/>
	<path class="st0" d="M-269.4,404.7l8.3,6.2c0.3-0.2,0.6-0.4,0.8-0.6c0.3-0.2,0.6-0.5,0.9-0.8l-8.3-6.2L-269.4,404.7z"/>
	<path class="st0" d="M-276.6,391.3l-7.4-5.5c-0.5,0.6-0.9,1.1-1.3,1.7l6.9,5.2L-276.6,391.3z"/>
	<path class="st0" d="M-265.9,402l8.1,6.1c0.5-0.5,0.9-1.1,1.3-1.7l-7.6-5.7L-265.9,402z"/>
	<path class="st0" d="M-273.1,388.6l-7.7-5.8c-0.2,0.1-0.4,0.3-0.6,0.4c-0.4,0.3-0.8,0.6-1.1,1l7.7,5.7L-273.1,388.6z"/>
	<path class="st0" d="M-262.4,399.3l7,5.2c0.3-0.7,0.6-1.3,0.9-2l-6.1-4.6L-262.4,399.3z"/>
	<path class="st0" d="M-261.6,382.3l-25.6,19.9c0.2,0.7,0.5,1.4,0.8,2.1l26.5-20.7C-260.3,383.2-260.9,382.7-261.6,382.3z"/>
	<path class="st0" d="M-257.3,386.3c-0.3-0.4-0.6-0.8-0.9-1.1l-27,21c0.3,0.4,0.5,0.8,0.8,1.2c0.1,0.2,0.3,0.4,0.4,0.5l27.1-21.1
		C-257,386.6-257.1,386.4-257.3,386.3z"/>
	<path class="st0" d="M-255.7,388.6l-26.7,20.8c0.5,0.5,1.1,1,1.7,1.4l26-20.2C-255,389.9-255.3,389.3-255.7,388.6z"/>
</g>
</svg>
